<svg xmlns="http://www.w3.org/2000/svg" xmlns:xlink="http://www.w3.org/1999/xlink" width="500" zoomAndPan="magnify" viewBox="0 0 375 374.999991" height="500" preserveAspectRatio="xMidYMid meet" version="1.0"><defs><clipPath id="f996b3139c"><path d="M 112.5 112.5 L 262.5 112.5 L 262.5 262.5 L 112.5 262.5 Z M 112.5 112.5 " clip-rule="nonzero"/></clipPath></defs><g clip-path="url(#f996b3139c)"><path fill="#ffffff" d="M 250.734375 141.910156 L 221.324219 141.910156 L 221.324219 124.265625 C 221.324219 117.777344 216.046875 112.5 209.558594 112.5 L 165.441406 112.5 C 158.953125 112.5 153.675781 117.777344 153.675781 124.265625 L 153.675781 141.910156 L 124.265625 141.910156 C 117.777344 141.910156 112.5 147.1875 112.5 153.675781 C 112.5 158.789062 112.5 246.417969 112.5 250.734375 C 112.5 257.222656 117.777344 262.5 124.265625 262.5 L 250.734375 262.5 C 257.222656 262.5 262.5 257.222656 262.5 250.734375 C 262.5 246.4375 262.5 158.785156 262.5 153.675781 C 262.5 147.1875 257.222656 141.910156 250.734375 141.910156 Z M 159.558594 124.265625 C 159.558594 121.019531 162.199219 118.382812 165.441406 118.382812 L 209.558594 118.382812 C 212.800781 118.382812 215.441406 121.019531 215.441406 124.265625 L 215.441406 141.910156 L 209.558594 141.910156 L 209.558594 136.03125 C 209.558594 129.542969 204.28125 124.265625 197.792969 124.265625 L 177.207031 124.265625 C 170.71875 124.265625 165.441406 129.542969 165.441406 136.03125 L 165.441406 141.910156 L 159.558594 141.910156 Z M 203.675781 141.910156 L 171.324219 141.910156 L 171.324219 136.03125 C 171.324219 132.785156 173.960938 130.148438 177.207031 130.148438 L 197.792969 130.148438 C 201.039062 130.148438 203.675781 132.785156 203.675781 136.03125 Z M 124.265625 147.792969 C 137.65625 147.792969 238.023438 147.792969 250.734375 147.792969 C 253.980469 147.792969 256.617188 150.433594 256.617188 153.675781 L 256.617188 191.910156 C 256.617188 195.15625 253.980469 197.792969 250.734375 197.792969 L 200.734375 197.792969 L 200.734375 188.96875 C 200.734375 187.347656 199.417969 186.03125 197.792969 186.03125 L 177.207031 186.03125 C 175.582031 186.03125 174.265625 187.347656 174.265625 188.96875 L 174.265625 197.792969 L 124.265625 197.792969 C 121.019531 197.792969 118.382812 195.15625 118.382812 191.910156 L 118.382812 153.675781 C 118.382812 150.433594 121.019531 147.792969 124.265625 147.792969 Z M 180.148438 191.910156 L 194.851562 191.910156 L 194.851562 202.207031 C 194.851562 206.261719 191.554688 209.558594 187.5 209.558594 C 183.445312 209.558594 180.148438 206.261719 180.148438 202.207031 Z M 250.734375 256.617188 L 124.265625 256.617188 C 121.019531 256.617188 118.382812 253.980469 118.382812 250.734375 L 118.382812 202.09375 C 120.113281 203.097656 122.121094 203.675781 124.265625 203.675781 L 174.347656 203.675781 C 175.082031 210.285156 180.699219 215.441406 187.5 215.441406 C 194.300781 215.441406 199.917969 210.285156 200.652344 203.675781 L 250.734375 203.675781 C 252.878906 203.675781 254.886719 203.097656 256.617188 202.09375 L 256.617188 250.734375 C 256.617188 253.980469 253.980469 256.617188 250.734375 256.617188 Z M 250.734375 256.617188 " fill-opacity="1" fill-rule="nonzero"/></g><path fill="#bfbdbc" d="M 375 187.503906 C 375 291.054688 291.054688 375 187.503906 375 C 83.953125 375 0.0078125 291.054688 0.0078125 187.503906 C 0.0078125 83.949219 83.953125 0.0078125 187.503906 0.0078125 C 291.054688 0.0078125 375 83.949219 375 187.503906 " fill-opacity="1" fill-rule="nonzero"/><path fill="#ffffff" d="M 254.105469 128.230469 C 254.105469 165.144531 224.175781 195.070312 187.261719 195.070312 C 150.347656 195.070312 120.417969 165.144531 120.417969 128.230469 C 120.417969 91.3125 150.347656 61.386719 187.261719 61.386719 C 224.175781 61.386719 254.105469 91.3125 254.105469 128.230469 " fill-opacity="1" fill-rule="nonzero"/><path fill="#ffffff" d="M 187.261719 366.097656 C 234.5625 366.097656 277.765625 348.574219 310.75 319.675781 C 300.511719 252.816406 270.359375 206.414062 187.261719 206.414062 C 106.496094 206.414062 75.238281 253.011719 64.253906 320.105469 C 97.179688 348.75 140.191406 366.097656 187.261719 366.097656 " fill-opacity="1" fill-rule="nonzero"/></svg>