<svg xmlns="http://www.w3.org/2000/svg" xmlns:xlink="http://www.w3.org/1999/xlink" width="418" zoomAndPan="magnify" viewBox="0 0 313.5 374.999991" height="500" preserveAspectRatio="xMidYMid meet" version="1.0"><defs><clipPath id="a0d3a114e1"><path d="M 0 0.296875 L 312.820312 0.296875 L 312.820312 374.699219 L 0 374.699219 Z M 0 0.296875 " clip-rule="nonzero"/></clipPath><clipPath id="6649d35b3c"><path d="M 93.898438 124.898438 L 218.949219 124.898438 L 218.949219 249.949219 L 93.898438 249.949219 Z M 93.898438 124.898438 " clip-rule="nonzero"/></clipPath></defs><path fill="#737373" d="M 27.90625 67.699219 L 27.90625 230.429688 C 27.957031 233.726562 30.765625 310.941406 156.484375 345.640625 L 156.484375 31.882812 C 101.511719 58.988281 55.160156 66.15625 27.90625 67.699219 " fill-opacity="1" fill-rule="nonzero"/><path fill="#545454" d="M 156.484375 31.882812 L 156.484375 345.640625 C 282.132812 310.960938 285.003906 233.875 285.058594 230.769531 L 285.058594 67.699219 C 257.808594 66.15625 211.464844 58.988281 156.484375 31.882812 " fill-opacity="1" fill-rule="nonzero"/><g clip-path="url(#a0d3a114e1)"><path fill="#545454" d="M 289.742188 230.769531 C 289.679688 234.261719 286.667969 314.570312 157.730469 350.152344 L 156.484375 350.496094 L 155.242188 350.152344 C 25.988281 314.480469 23.28125 233.910156 23.226562 230.5 L 23.226562 63.277344 L 27.640625 63.027344 C 56.03125 61.421875 101.070312 53.992188 154.417969 27.6875 L 156.484375 26.660156 L 158.550781 27.6875 C 211.90625 53.992188 256.945312 61.421875 285.328125 63.027344 L 289.742188 63.277344 Z M 156.484375 0.292969 C 66.203125 48.96875 -0.171875 39.183594 -0.171875 39.183594 L -0.171875 230.769531 C -0.171875 230.769531 -0.171875 334.84375 156.484375 374.683594 C 313.140625 334.84375 313.140625 230.769531 313.140625 230.769531 L 313.140625 39.183594 C 313.140625 39.183594 246.765625 48.96875 156.484375 0.292969 " fill-opacity="1" fill-rule="nonzero"/></g><g clip-path="url(#6649d35b3c)"><path fill="#ffffff" d="M 209.273438 149.445312 L 184.726562 149.445312 L 184.726562 134.71875 C 184.726562 129.304688 180.320312 124.898438 174.90625 124.898438 L 138.085938 124.898438 C 132.671875 124.898438 128.265625 129.304688 128.265625 134.71875 L 128.265625 149.445312 L 103.71875 149.445312 C 98.304688 149.445312 93.898438 153.851562 93.898438 159.265625 C 93.898438 163.53125 93.898438 236.667969 93.898438 240.273438 C 93.898438 245.6875 98.304688 250.089844 103.71875 250.089844 L 209.273438 250.089844 C 214.6875 250.089844 219.089844 245.6875 219.089844 240.273438 C 219.089844 236.6875 219.089844 163.53125 219.089844 159.265625 C 219.089844 153.851562 214.6875 149.445312 209.273438 149.445312 Z M 133.175781 134.71875 C 133.175781 132.011719 135.378906 129.808594 138.085938 129.808594 L 174.90625 129.808594 C 177.613281 129.808594 179.816406 132.011719 179.816406 134.71875 L 179.816406 149.445312 L 174.90625 149.445312 L 174.90625 144.539062 C 174.90625 139.125 170.5 134.71875 165.085938 134.71875 L 147.902344 134.71875 C 142.488281 134.71875 138.085938 139.125 138.085938 144.539062 L 138.085938 149.445312 L 133.175781 149.445312 Z M 169.996094 149.445312 L 142.996094 149.445312 L 142.996094 144.539062 C 142.996094 141.832031 145.195312 139.628906 147.902344 139.628906 L 165.085938 139.628906 C 167.792969 139.628906 169.996094 141.832031 169.996094 144.539062 Z M 103.71875 154.355469 C 114.894531 154.355469 198.660156 154.355469 209.273438 154.355469 C 211.980469 154.355469 214.183594 156.558594 214.183594 159.265625 L 214.183594 191.175781 C 214.183594 193.882812 211.980469 196.085938 209.273438 196.085938 L 167.542969 196.085938 L 167.542969 188.722656 C 167.542969 187.367188 166.441406 186.269531 165.085938 186.269531 L 147.902344 186.269531 C 146.546875 186.269531 145.449219 187.367188 145.449219 188.722656 L 145.449219 196.085938 L 103.71875 196.085938 C 101.011719 196.085938 98.808594 193.882812 98.808594 191.175781 L 98.808594 159.265625 C 98.808594 156.558594 101.011719 154.355469 103.71875 154.355469 Z M 150.359375 191.175781 L 162.632812 191.175781 L 162.632812 199.769531 C 162.632812 203.152344 159.878906 205.90625 156.496094 205.90625 C 153.113281 205.90625 150.359375 203.152344 150.359375 199.769531 Z M 209.273438 245.179688 L 103.71875 245.179688 C 101.011719 245.179688 98.808594 242.980469 98.808594 240.273438 L 98.808594 199.675781 C 100.253906 200.515625 101.929688 200.996094 103.71875 200.996094 L 145.519531 200.996094 C 146.132812 206.511719 150.820312 210.816406 156.496094 210.816406 C 162.171875 210.816406 166.859375 206.511719 167.472656 200.996094 L 209.273438 200.996094 C 211.058594 200.996094 212.738281 200.515625 214.183594 199.675781 L 214.183594 240.273438 C 214.183594 242.980469 211.980469 245.179688 209.273438 245.179688 Z M 209.273438 245.179688 " fill-opacity="1" fill-rule="nonzero"/></g></svg>